<?xml version="1.0" encoding="UTF-8"?><!DOCTYPE svg PUBLIC "-//W3C//DTD SVG 1.0//EN" "http://www.w3.org/TR/2001/REC-SVG-20010904/DTD/svg10.dtd" []><svg xmlns="http://www.w3.org/2000/svg" xmlns:xlink="http://www.w3.org/1999/xlink" height="359" stroke="#000" stroke-linecap="square" stroke-miterlimit="10" viewBox="0 0 309.38 359.26" width="309"><defs><clipPath id="a"><path d="M0 0V359.26H309.38V0Z"/></clipPath><clipPath clip-path="url(#a)" id="b"><path d="M-53.2 595.77h900v-900h-900Z"/></clipPath><clipPath clip-path="url(#b)" id="c"><path d="M-53.2-304.23h900v900h-900Z"/></clipPath></defs><g><g fill="#1A2550" stroke="none"><path clip-path="url(#c)" d="M157.5 188.61c0 1.28-1.24 2.32-2.77 2.32s-2.76-1.05-2.76-2.32 1.24-2.33 2.76-2.33 2.77 1.05 2.77 2.33"/><path clip-path="url(#c)" d="M105.07 83.3l.55.68c3.05 1.84 5.3 3.9 6.82 6.56l.47.73c.56.69.93.99 1.46.85l.65-.59c.19-1.65-.42-2.69-1.23-3.58-2.26-2.47-5.25-3.84-8.72-4.65m99.36.26c-3.04.39-5.57 1.53-7.73 3.33l-1.92 2.3c-.37.75-.56 1.5-.3 2.3l.91.92c1.03-1 1.39-1.54 1.71-2.07 1.48-2.44 3.49-4.42 6.05-5.94l.85-.56m33.66 55.74c1.72 1.22 3.59 1.49 5.53 1.38 4.3-.24 6.7-3.88 4.98-7.5-.41-.86-.98-1.65-2.03-2.15.25 5.9-2.22 7.81-8.48 8.28M63.3 131.21l-1.08.84c-1.8 2.32-1.8 4.31-.76 6.33.92 1.79 2.66 2.47 4.72 2.59 1.55.1 3.06-.05 4.47-.73l1-.11c-6.62-1.15-8.2-2.72-8.35-8.91M187.46 94.42l-5.76 1.67c-1.29.53-2.52 1.12-3.56 2.01-.88.76-1.61 1.65-1.75 2.79-.16 1.25.35 1.7 1.7 1.6l1.03-.21c2.15-1.16 3.73-2.17 5.18-3.36 1.47-1.2 2.43-2.69 3.18-4.49m-65.51-.02c.87 2.4 2.49 4.13 4.53 5.56l3.87 2.3c.7.33 1.63.54 2.3 0 .68-.55.44-1.38.18-2.07-.52-1.39-1.67-2.34-3.01-3.09-2.39-1.35-5.04-2.09-7.87-2.69m108.49 53.37c2.64-.46 4.93-.68 7.29-.4l8 .6c4.38.4 8.32-3.24 8.53-6.87.19-3.61-1.85-6.17-4.58-8.93.26 1.15.37 1.93.6 2.69l.28 3.26c-.16 2.44-1.81 4.43-4.39 5.1-2.31.61-4.61 1.26-7.05 1.34-3.17.11-6.02.97-8.7 3.21m-171-15.19c-2.05 1.91-3.15 3.41-3.82 5.14-1.9 4.98 1.82 10.24 7.29 10.24l4.82-.27c3.64-.36 7.26-.82 10.94-.09-1.83-1.34-3.7-2.59-6.15-2.78-3.01-.24-5.96-.69-8.88-1.44-2.84-.74-4.36-2.45-4.83-5.03-.24-1.31.09-2.56.36-3.81l.39-1.23m101.69 41.74c-.05-2.87-2.25-5.82-6.79-5.92-3.82-.09-6.81 2.78-6.72 6.18.09 3.19 3.14 5.77 6.79 5.74 3.75-.02 6.77-2.72 6.72-6m-43.2-92.94c-.26 1.8-.17 3.56.2 5.31.44 2.13 1.53 3.86 3.73 4.93 1.84.91 3.74 1.62 5.8 1.95l2.7.71c2.74.93 4.16 2.97 5.25 5.23 1.05 2.19 1.73 4.47 2.36 6.77l1.14 2.1c1.42 1.5 3.32 2.3 5.34 3.18.56-1.74.48-3.29-.24-4.78l-3.25-5.45c-3.21-4.38-7.11-8.08-12.5-10.29l-3.67-1.88c-3.26-1.86-5.81-4.26-6.85-7.78M190 189.19l.6-.27.53-.24c3.63-1.35 7.13-1.8 10.71-.49l4.51 1.97c1.73.92 3.56 1.65 5.52 2.1 1.38.31 2.76.56 4.5.36-4.95-2.66-5.48-3.09-8.1-6.45l-1.65-2.3c-.86-1.18-1.85-2.26-3.12-3.07-2.08-1.31-4.39-1.38-6.44-.24-3.46 1.92-5.91 4.68-7.07 8.63m-70.59-.03c-.99-3.39-3.11-5.76-5.81-7.88-2.27-1.79-6.52-2.06-8.87.43l-2.23 2.59c-1.03 1.58-2.25 3.04-3.55 4.43-1.32 1.41-2.89 2.53-4.78 3.27l-.89.01 1.33.69c3.22-.31 5.6-1.11 7.83-2.24l5.62-2.42c2-.61 4.01-.81 6.12-.46l5.22 1.58m45.45-76.87c1.56-.61 3.04-1.31 4.33-2.29 1.08-.83 1.8-1.83 2.17-3.18.61-2.28 1.35-4.56 2.37-6.75 1.51-3.22 4.02-5.22 7.91-5.76 1.93-.26 3.71-.97 5.45-1.77 2.74-1.26 3.92-3.38 4.21-6.02l.23-4.73c-.31.03-.37.34-.41.52-.68 2.99-2.8 5.06-5.35 6.83-1.77 1.21-3.76 2.12-5.72 3.04-2.51 1.16-4.91 2.52-6.87 4.4-3.25 3.12-5.92 6.59-7.88 10.51-.85 1.67-1.11 3.37-.42 5.2m-19.9 59.39c.05 1.79.03 1.78-.71 3.34l-1.13 2.72c-.91 3.06.48 5.92 3.59 7.35l3.89 1.47c1.5.53 2.81 1.19 2.87 2.91l.64.83c1.25.01 2-.01 2.02-.74.05-1.92 1.54-2.53 3.16-3.1l3.7-1.4c3.76-1.78 4.94-4.63 3.49-8.27l-.34-.79c-.8-1.6-1.53-2.77-1.1-4.31-1.16.74-1.27 1.61-1.15 2.56.23 1.82-.43 3.36-1.73 4.7l-.78.83c-1.8 2.05-3.21 3.64-4.11 5.59-.44.97-1.29 1.74-2.62 1.69-1.06-.06-2.08-.9-2.42-2.14l-1.04-1.95c-1.05-1.26-2.1-2.54-3.22-3.74-1.41-1.51-2.26-3.15-1.95-5.19.14-.89-.09-1.67-1.08-2.37M93.21 125.14c3.81.05 7.04 1.41 10.49 2.07-1.33-.83-1.95-2.04-2.68-3.21l-2-4.36c-1.47-3.74-4.11-6.51-8.18-8.06-4.32-1.63-8.89-2.18-13.5-2.6-4.32-.41-5.88-.95-6.67-5.81l.1-.33-.68 1.38c.36 3.55 2.3 5.37 4.58 6.96 1.92 1.36 4.13 2.22 6.42 2.95l6.59 2.17c2.22.82 4.12 2.07 5.74 4.13-3.59-.96-6.92-1-10.29-.8-2.48.16-4.9.59-7.2 1.49-1.19.48-2.39 1-3.33 2.27 2.42-.37 4.53-.22 6.61.26l5.06 1.13c1.91.53 3.51 1.53 4.54 3.12.95 1.48 1.17 3.06.33 4.71-1.05 2.06-1.83 4.19-1.51 6.52.26 1.92 2.34 3.9 4.55 4.21l-.26-.3c-2.75-2.4-2.88-3.53-.78-6.28l2.41-3.58c1.2-2.39 1.38-4.81.01-7.21l-.19-.44m143.3-2.27c-2.64-2.58-6.15-3.24-9.75-3.57-3.58-.35-7.16-.26-10.87.69 1.98-2.33 4.02-3.63 7.31-4.71l7-2.27c2.45-.86 4.68-2.12 6.49-3.89 2.17-2.14 2.72-3.83 2.18-6.98l-.64 2.5c-.62 1.94-1.75 3.31-4.17 3.68l-5.58.62c-3.89.41-7.65 1.27-11.22 2.73l-2.19 1.28c-2.42 2.09-4.37 4.4-5.29 7.41-.76 2.44-2 4.74-4.18 6.57 3.45-.75 6.73-2.21 10.51-2.11-2.2 3.56-1.48 6.81.79 9.93l1.8 2.41c1.27 1.83 1.04 3.43-.68 4.92l-1.78 1.33c4.73-1.31 6.11-4.23 5.3-7.37l-1.48-3.96c-.34-.76-.49-1.51-.4-2.32.26-2.5 2.61-4.78 5.53-5.39l4.28-.97c2.3-.52 4.6-.89 7.03-.51M135.66 175.38c-2.99-.75-5.97 1.38-5.96 4.31.01 2.97 1.11 5.48 3.29 7.62 1.75 1.72 3.79 3.13 5.9 4.41 2.92 1.75 6.16 2.34 9.6 1.45l2.19-.73c.13.14.24.21.29.33 1.7 2.67 5.42 2.79 7.31.18l.73-.46c4.87 1.89 8.82 1.04 12.49-1.35l3.14-2.27c2.97-2.31 4.88-5.03 5.05-8.77.13-3.09-2.58-5.35-5.92-4.8 2.09 2.39 1.94 4.6-.47 6.91-1.12 1.08-2.47 1.88-3.91 2.55-2.96 1.36-6.12 2.14-9.39 2.54-1.85.23-2.22.51-2.64 2.2-.31 1.28-.84 1.77-2.05 1.88-1.68.17-3.08-.26-3.34-1.42-.46-1.99-1.98-2.37-3.79-2.67l-6.53-1.74c-2.37-.89-4.26-2.28-5.76-4.16-1.2-1.5-1.45-3.09-.76-4.83l.33-.77m-24.8-18.63c-1.96 2.1-2.47 4.43-2.13 7.04.25 1.91 1.15 3.24 3.1 3.87l.96.73c.75 3.12 2.07 5.15 4.7 6.15 1.09.43 1.74 1.06 2.12 2.03l.46 1.01c3.01 4.88 4.47 9.68 5.72 14.55.92 3.61 1.95 7.21 3.32 10.71.53 1.31 1.11 2.64 2.39 3.53l6.34 4.19c.8.44 1.62.88 2.5 1.14 3.49 1.08 7.08 2.03 10.75 2.23 9.47.58 18.45-.73 25.93-6.7l.1-.09c1.93-1 2.85-2.59 3.55-4.35 1.31-3.27 2.21-6.64 3.14-10.01 1.2-4.36 2.25-8.76 4.53-12.82l2.11-3.94c.29-.58.63-1 1.33-1.25 2.9-1.1 4.55-3.14 5.04-5.92l.29-.93c2.11-.61 3.26-1.44 3.64-2.78.9-3.15.51-6.13-1.97-8.98l.19.84c.11 4.39-.52 7.28-4.92 8.75l-.83.62c-.05 2.2-.76 3.62-2.14 4.41-2.08 1.2-3.31 2.89-4.32 4.81l-.14.21c-1.18 1.53-1.78 3.11-2.05 4.83-.78 5.1-2.29 9.99-4.59 14.71-1.45 2.99-4.11 4.58-7.37 5.46-3.36.89-6.65.36-9.82-.83l-6.17-2.2c-1.2-.34-2.35-.34-3.54.01l-5.05 1.78c-1.65.7-3.36 1.19-5.15 1.49-4.97.8-11.16-1.23-13.32-6.07-1.92-4.31-3.49-8.7-4.18-13.29-.35-2.27-.97-4.41-2.51-6.28l-.73-.91c-.44-1.63-1.25-2.23-2.27-2.79-1.85-1.05-3.15-2.54-3.34-4.55-.08-.9-.41-1.23-1.27-1.56-2.89-1.1-4.33-3.16-4.43-5.98v-2.89m13.97-20.88l-1.19.1c-8.74 1.96-16.22 5.02-21.99 11.07-4.04 4.23-6.09 8.68-3.9 14.24.91 2.3.72 4.69.21 7.05-.36 1.62-1.23 2.95-2.57 4.06-1.14.96-2.44 1.74-3.87 2.26-9.8 3.55-19.26 3.17-28.21-2.19-3.45-2.07-6.41-4.64-9.04-7.52-4.5-4.93-8.6-10.13-11.85-15.85l-4-6.76c-1.23-2.04-2.59-3.99-4.28-5.75-5.6-5.79-12.78-5.88-19.38-2.14-1.12.64-2.15 1.41-2.97 2.47.88.04 1.48-.42 2.1-.71 5.57-2.67 10.65-1.48 15.38 1.74 2.92 1.98 5.27 4.5 7.14 7.36l4.33 6.59c2.82 4.36 5.6 8.75 8.73 12.94 2.38 3.19 5.01 6.19 8.2 8.75 3.71 3 7.83 5.2 12.74 6.29 9.33 2.07 17.96.33 26.18-3.7 3.34-1.63 5.6-4.17 6.4-7.59.51-2.2.14-4.38-.46-6.52-.58-2.08-.98-4.21-.31-6.31 1.95-6.09 6.2-10.41 12.48-13.11l1.05-.58c.24 1.33-.27 2.3-.56 3.36-1.31 4.77-.16 9.14 3.09 12.92 2.67 3.12 4.64 6.55 6.69 9.97 1.35 2.25 1.98 4.65 1.98 7.19l.01 5.49c.16 3.19 1.45 5.92 4.12 8.07l.63.64c-.26-1.48-1.2-2.64-1.89-3.94-1.41-2.64-2.12-5.35-1.26-8.3.73-2.59.6-5.2-.37-7.76-1.77-4.61-3.89-9.07-6.69-13.25l-.68-.63.33-.51.46.32c3.29 1.68 6.43 2.99 10.01 3.22 3.04.19 6.03-.19 9-.66 3.48-.56 6.95-.84 10.31.46 2.69 1.04 5.29.96 7.98-.01 2.53-.93 5.19-1.17 7.9-.72l5.17.7c4.76.62 9.37.32 13.7-1.79l2.98-1.42c-.05.29-.03.42-.08.51-2.63 4.06-4.83 8.26-6.59 12.69-1.18 2.99-1.58 5.91-.79 8.95.6 2.29.39 4.47-.56 6.64-.86 2.01-2.07 3.84-3.51 5.57 1.22-.33 2.05-1.08 2.81-1.91 2.47-2.71 3.04-5.9 2.85-9.27-.16-2.94-.24-5.92 1.15-8.63 1.96-3.81 3.95-7.6 6.95-10.86 1.47-1.62 2.6-3.44 3.3-5.42 1.37-3.86 1.22-7.65-1.07-11.36 1.35-.13 2.33.44 3.3.91 4.5 2.25 7.74 5.59 10.02 9.72 1.18 2.14 1.62 4.38 1.22 6.74l-.73 3.4c-.34 1.5-.58 3.01-.37 4.55.53 3.63 2.69 6.3 6.01 8.25 2.1 1.23 4.45 1.97 6.75 2.8 7.63 2.74 15.34 2.67 23.04.36 4.96-1.5 8.87-4.49 12.4-7.89 3.66-3.52 6.54-7.58 9.28-11.7l9.48-14.44c1.8-2.77 4.12-5.16 6.92-7.06 4.77-3.27 9.92-4.48 15.55-1.69.54.27 1.08.63 1.97.69-.59-.94-1.4-1.46-2.19-1.97-5.64-3.77-13.82-4.97-20.04 1.48l-3.71 4.77c-1.38 2.23-2.75 4.47-4.04 6.74-3.57 6.34-8 12.12-13.05 17.54-2.89 3.09-6.19 5.78-10.03 7.84-6.13 3.29-12.77 4.26-19.77 3.14-3.39-.53-6.66-1.4-9.54-3.2-2.48-1.55-3.84-3.67-4.05-6.42-.16-2.15-.11-4.24.65-6.31 1.55-4.3.6-8.2-2.47-11.68-1.84-2.1-3.85-4.06-6.14-5.8-4.58-3.47-10.05-5.27-15.7-6.69-.92-.23-1.84-.56-2.88-.46l.03.71c-.16 1.59.43 2.41 1.69 3.08 1.82.97 3.21 2.42 4.2 4.11 1.51 2.55 1.68 5.08-.49 7.49-1.18 1.3-2.55 2.34-4.21 3.04-5.66 2.42-11.56 3.17-17.59 1.48-3.55-.99-7.01-1.06-10.45.09-2.27.76-4.41.74-6.66-.01-3.3-1.08-6.64-1.13-10.04-.13-5.6 1.62-11.14 1.11-16.54-.8-2.68-.95-4.93-2.42-6.43-4.76-.88-1.36-1.04-2.72-.63-4.2.72-2.7 2.54-4.74 5-6.2 1.29-.76 1.87-1.57 1.81-2.9l.06-.58m45.52-78.37l-.16-.22.2-.51c2.41-2.47 3.88-5.08 4.36-8.14l.97-5.42c.4-2.14 1.23-4.06 3.64-5.28l-.6-.14c-4.75-.13-7.98 1.88-10.2 5.35l-2.77 4.67c-1.51 2.45-3.66 4.33-6.28 5.8l-.63.5c.37-2.97.29-3.42-1.19-4.43.39 2.12-1.67 2.66-2.81 3.97-1.1-1.45-3.46-1.99-2.5-4.33-2.15 1.35-1.48 3-.76 4.63l-.48.04-.59-.25c-2.77-1.59-4.9-3.42-6.39-5.81l-2.66-4.51c-1.11-1.86-2.61-3.4-4.63-4.48s-4.43-1.4-6.16-.84c1.79.77 2.62 2.19 3.14 3.82l.84 4.31c.45 3.37 1.26 6.62 3.69 9.33l2.05 2.17-1.88-.61c-3.01-1.78-5.01-3.41-7.01-5.05-4.23-3.45-10.34-4.18-15.38-.96l-4.66 3.21c-1.7 1.2-3.53 2.21-5.63 2.74-3.77.96-8.31.21-10.92-3.23l-1.98-2.31c-1.12-1.2-2.56-1.93-4.27-2.23-1.56-.29-3.26.21-4.34 1.28 2.15-.29 3.56.31 4.58 2.05.61 1.03.94 2.14.98 3.32l.75 4.7c1.17 4.65 4.7 7.34 9.44 8.6 2.87.77 5.94.98 8.94 1.2 6.23.46 10.69 3.2 13.46 8.26l.48 1.03c1.7-2.99.15-7.16-3.39-9.51-1.86-1.25-4.01-1.92-6.24-2.39l-9.84-1.85c-1.74-.44-3.43-1.03-4.95-1.95-3.04-1.84-4.5-4.58-5.28-7.72l.62.49c2.82 2.5 5.85 3.57 9.4 3.39 2.47-.13 4.71-.91 6.78-2.07l5.01-3.06c2.18-1.34 4.53-2.34 7.14-2.8 1.88-.34 3.79-.41 5.51.42 3.06 1.5 5.68 3.51 7.47 6.25 1.64 2.52 1.97 5.08.22 7.78-1.31 2-1.67 4.28-.81 6.52.51 1.35.47 2.59-.08 3.9-1.13 2.72-1.45 5.57-1.2 8.45l.28 1.22c2.5-.76 3.86-.81 5.24-.39 5.67 1.7 8.22 8.22 4.7 12.52l-.6.81c.25.86.78 1.23 1.31 1.59 1.75 1.18 3.11 2.68 4.17 4.41 2 3.21 1.06 7.73-2.12 9.69-3.07 1.91-6.59 2.25-10.21 2.06l-1.03-.32c.58-2.33.51-3.92.03-5.47-.33-1.06-.58-2.05.38-3.04.69-.72.58-1.73.38-2.63-.35-1.49-2.04-2.56-3.61-2.29-.75.13-1.39.45-1.74 1.13l-.06 1.21c1.06-.78 1.4-1.06 2.18-.85.83.24 1.44 1.17 1.32 2.05l-.53 1.11c-1.29.83-1.32 1.36-.95 2.1 2.64 5.16-.08 10.16-4.37 13.01-4.34 2.89-9.2 3.54-14.35 2.44-4.21-.9-7.11-3.28-8.84-6.86-1.49-3.11-.91-6.09.67-9l1.55-1.39c2.82-1.61 5.96-1.73 9.12-1.48 3.58.27 6.72 1.68 9.57 3.53 1.98 1.28 2.98 3.2 2.72 5.41-.32 2.67-2.26 4.63-6.22 4.45-2.79-.14-4.88-1.32-5.96-3.69-1.05-2.31-.7-4.41 1.53-6.1l.02-.23c-1.53-.57-3.08-.99-4.7-.96-2.18.04-4.13.63-5.22 2.53-1.11 1.93-.83 3.78.57 5.5 1.09 1.33 2.32 2.55 3.8 3.53 3.22 2.1 6.76 2.92 10.65 1.9 3.22-.84 5.91-2.35 7.3-5.27 1.65-3.47.37-8.04-2.96-10.42-4.09-2.93-8.65-5.1-13.59-6.6-5.08-1.55-10.2-2.95-15.06-5.06-2.94-1.28-5.61-2.85-7.81-5.05l-.63-.81c-.35 2.8.83 5.39 2.74 7.71 1.94 2.36 4.17 4.46 6.86 6.14l3.37 2.32c1.12.92 1.35 2.1 1.01 3.34l-1.06 2.27c-1.57-1.03-2.53-2.33-3.44-3.66-4.09-6.04-9.4-10.94-16.27-14.38l-.68-.38c-4.63-2.59-7.54-5.97-9.11-10.31l-2.64-6.12c-.13-.25-.57-.61.09-.97 2.01 1.68 4.39 2.93 6.89 3.96 5.08 2.1 10.36 3.66 15.75 4.9 5.62 1.28 11.04 2.91 15.72 6.16l.23-.07c-2.32-3.79-5.7-6.5-10.26-8l-9.76-2.81c-4.88-1.28-9.84-2.38-14.48-4.33-2.08-.87-4.08-1.84-5.71-3.34l-.63-.66c-.41 3.81.5 7.23 1.58 10.61 1.25 3.96 3.5 7.35 6.92 10.1 2.17 1.75 4.58 3.18 7.07 4.52 3.6 1.93 6.48 4.51 8.6 7.78l2.05 3.14c1.02 1.53 2.01 3.1 3.54 4.2 2.52 1.81 3.69 4.24 4.5 6.93 1.1 3.7 3.69 6.28 7.46 7.95 1.78.78 3.68 1.1 5.6 1.38l1 .61c-1.7 1.41-3.01 1.98-4.56 2.06l-3.81.3c-1.09.12-2.1.46-2.89 1.17l-1.01.95c.86-.54 1.89-.75 3.14-.59l1.19.17c2.42.55 4.3.76 6.17.54 3.27-.34 5.87-1.75 7.35-4.46.41-.75.89-1.13 1.68-1.38 4.5-1.46 7.93-4.01 9.84-8.08l.62-.84c2.6.38 4.48.3 6.37.12.67-.06 1.31-.45 2.22-.22l-6.51 5.94c-1.94 1.6-3.96 3.12-5.8 4.81-3.91 3.57-4.17 7.93-3.02 12.43 1.35 5.31 10.86 8.37 15.68 4.48l2.24-1.23c1.39-.79 2.81-.73 4.19-.02l2.55 1.46c1.09.58 2.23.83 3.44.26l1.08-.51c2.81-2.03 5.18-2.22 7.62-.51l.49.24c2.68 2.19 5.62 2.47 8.67 1.74 3.77-.94 6.83-2.84 7.61-6.54 1-4.73.26-9.13-4.01-12.52l-1.64-1.36c-2.99-2.37-5.94-4.78-8.65-7.42l-1.01-.63c2.56-.24 5.09-.04 7.63-.38l.99-.09c2.23 4.91 5.83 7.56 10.58 9.02l.94.54c1.29 2.68 3.2 3.99 5.55 4.75 2.21.71 4.48.6 6.75.19 1.7-.31 3.39-.84 5.41-.09-.86-1.35-1.99-1.71-3.18-1.88l-4.01-.33c-1.48-.07-2.72-.61-3.83-1.43l-.72-.57c1.14-.68 2.01-.78 2.86-.95 5.43-1.09 9.34-3.81 11.09-8.77l.93-2.6c.48-1.52 1.41-2.75 2.72-3.76 1.66-1.27 2.97-2.83 4.09-4.5l2.59-3.91c2.05-3.09 4.78-5.55 8.19-7.41l4.73-2.77c4.21-2.71 7.39-6.17 9.06-10.68 1.2-3.25 2-6.56 2.56-9.95l.23-1.27-1.09-.33c-1.95 1.82-4.05 2.88-6.27 3.76l-8.51 2.74c-4.95 1.29-9.93 2.52-14.81 4.06-4.5 1.4-8.02 3.88-10.59 7.49l-.69.48c4.26-2.2 8.48-3.98 13.08-5.03l12.5-3.37c3.75-1.15 7.41-2.49 10.77-4.44l3.11-2.07c-1.15 2.6-2.27 5.13-3.22 7.72-1.55 4.16-4.43 7.34-8.49 9.67l-5.42 3.17c-3.5 2.12-6.49 4.73-8.88 7.88l-4.31 5.52c-.62.78-1.22 1.6-2.28 2.05l-.53-1.06c-1-2.35-.67-3.64 1-4.88l3.42-2.26c3.14-2.15 5.83-4.69 7.75-7.84 1.08-1.77 1.77-3.65 1.94-5.88l-2.01 1.73c-1.28 1.16-2.64 2.25-4.27 3.02-4.09 1.98-8.32 3.67-12.76 4.88l-7.59 2.37c-4.16 1.47-8.03 3.41-11.43 6.04-4.95 3.82-4.39 10.85 1.1 13.95 7.68 4.36 15.45.53 18.84-5.32 1.27-2.2.04-5-2.4-6.05-2.66-1.16-5.23-.61-8.03.36 1.4 1.06 2.26 2.07 2.35 3.54.18 3.05-1.88 5.71-5.18 6.29-3.63.65-6.81-.48-7.44-4.06-.41-2.28.6-4.25 2.61-5.6 2.94-2 6.25-3.31 9.95-3.63 2.37-.22 4.72.05 6.96.68 3.21.88 4.24 3.29 4.76 6 .96 5.12-3.22 9.99-7.38 11.45-2.55.89-5.18 1.34-7.88 1.1-5.55-.49-9.99-2.66-12.75-7.23-1.5-2.48-1.72-5.1-.63-7.75.52-1.27 1.04-2.37-.66-3.23l-.31-.37c-.41-1.06.16-2.18 1.06-2.52.78-.3 1.15-.02 1.68 1.23l.09.06c.96-1.5.41-2.61-1.36-2.83-1.3-.16-2.65.54-3.28 1.7-.69 1.28-.5 2.54.38 3.63.56.69.53 1.28.31 2.05-.48 1.58-.72 3.2-.41 4.86.26 1.4.15 1.5-1.33 1.57-2.51.13-4.95-.2-7.31-1-5.25-1.8-7.14-7.15-4.08-11.42 1.42-1.99 3.23-3.59 5.45-4.87l-.61-.9c-1.9-2.35-2.24-4.51-1.7-6.83.98-4.19 6.12-7.58 10.2-6.07l1.34.14c.31-4.13-.18-7.01-1.27-9.8-.42-1.08-.51-2.09-.08-3.19.94-2.52.55-4.94-.9-7.22-1.11-1.76-1.18-3.56-.56-5.46.39-1.2 1-2.27 1.85-3.22 1.5-1.66 3.24-3.08 5.19-4.3 2.13-1.34 4.44-1.59 6.91-1.15 2.89.51 5.41 1.72 7.82 3.21l5.2 3.11c5.55 2.75 11.31 2.08 15.47-1.89l.4-.31c-.78 4.79-4.23 8.1-9.94 9.58l-8.08 1.5c-2.57.44-5.11.98-7.38 2.25-4.17 2.32-5.9 6.29-4.57 10.7l.98-2.06c2.34-4.3 6.23-6.87 11.32-7.66l8.56-1.02c4.52-.16 11.06-3.83 11.99-9.74l.76-5.43c.33-1.28.89-2.44 2.03-3.29 1.19-.88 2.52-.93 3.91-.28-2.66-2.57-6.28-1.8-8.32-.19-1.23.98-2.13 2.2-3.1 3.37-2.29 2.77-5.42 3.62-9.07 3.25-2.92-.29-5.29-1.64-7.54-3.22l-4.5-3.09c-4.92-3.12-11.08-2.38-15.2 1.02l-2.74 2.17c-1.67 1.2-3.26 2.53-5.28 3.28M128.01 160.58l.12-.21-.3.19.15.1c-.26 1.26.54 2.44 1 3.64.73 1.9 1.6 3.76 3.04 5.32 1.16 1.27 1.81 1.23 2.75-.12l1.5-2.37c.28-.48.63-.73 1.29-.53 3.64.97 7.43 1.04 11.15 1.23 7.7.37 15.4.24 23.01-1.2h1.13c.87 1.48 1.44 2.37 2.05 3.26l1.15.91c1.25-1 1.62-1.46 1.95-1.91 1.23-1.75 2.21-3.62 2.82-5.62.27-.89.87-1.74.72-2.82-5.31 1.03-10.5.89-15.71.22-2.39-.31-4.79-.23-7.16.51-2.67.84-5.4.8-8.09-.04-2.48-.78-5.02-.73-7.56-.41-3.39.43-6.79.64-10.22.36l-4.78-.48m107.4-89.89c2.12-.31 3.94-1.18 5.52-2.45 2.46-1.97 4.25-4.42 5.52-7.14.98-2.12.77-4.41.27-6.66l-1.52-4.16c-.59-1.36-1.03-2.74-1.13-4.24-.24-3.34 2.47-5.89 6.47-5.57 1.36.11 2.59.49 3.84 1.35l-2.47.39c-2.2.49-3.02 1.9-2.32 3.86.51 1.44 1.55 2.58 2.6 3.67 2.64 2.72 4.25 5.91 5.15 9.4 1.75 6.78 1.28 13.42-1.37 19.95-1.45 3.56-3.27 6.94-5.16 10.31-1.02 1.82-2.51 2.57-4.58 2.71l-4.33.77c-1.62.41-3.13 1.04-4.61 1.8-2.61 1.31-4.09 3.44-5.21 5.84l-.14.47.53.04c4.19-4.13 9.52-5.3 15.21-5.58l4.43.06c3.08.21 5.32-1.4 6.1-3.77.61-1.82 1.55-3.53 3-4.92 1.5-1.44 3.2-2.61 5.62-2.31l-.12.28c-2.94 1.26-3.52 2.12-3.32 5.02l.5 3.99c.54 2.95-.13 5.7-1.52 8.35-2.58 4.88-5.23 9.74-8.53 14.28l-.65.91c.09 1.01 6.62 3.69 7.1 3.71 3.31.14-.06-1.06.94 1.82.59 1.63.35 3.12-1.09 4.36-.93.81-1.96 1.47-3.39 1.8.38-1.06.77-2.03-.23-2.92-.92-.8-1.78-.98-2.89-.42-1.68.86-2.3 2.69-1.4 4.26.56.99 1.42 1.77 2.3 2.53l4.83 4.42c1.42 1.57 2.56 3.26 2.98 5.3.27 1.28.21 2.55-.11 3.81-1.31 5.04-7.12 9.15-12.85 9.15-2.31 0-4.49-.31-6.58-1.34-2.3-1.14-4.78-1.85-7.41-2.14-3.68-.38-7.13.3-10.32 1.79-5.23 2.44-6.24 8.53-2.12 11.99 2.09 1.76 5.42 2 7.61.56 1.13-.75 1.41-1.33 1.36-2.91-.81.29-.9 1.16-1.65 1.45-1.77.67-3.44.46-4.99-.43-1.5-.88-2.07-2.2-1.89-3.78.26-2.46 2.65-4.84 5.43-5.57 5.02-1.29 9.25.18 13.01 3.13 2.68 2.11 4.16 4.89 5.01 7.97l.37 1.22c2.99-1.46 4.6-2.67 6.04-4.03 5.85-5.47 10.44-11.76 14.29-18.5 1.26-2.21 2.37-4.5 3.94-6.57 2.61-3.44 6.07-5.8 10.57-6.81 6.09-1.38 11.55-.24 15.93 3.83 4.77 4.45 7.15 9.87 6.22 16.15-.68 4.61-3.22 8.38-7.39 11.11-4.6 3-11.27 2.58-15.27-.84-4.38-3.73-2.73-10.96 2.89-12.63 1.22-.37 2.4-.36 3.8-.01l-2.5.28c-5.25 1.12-7.23 6.27-3.95 10.16 2.75 3.26 7.33 4.27 11.33 2.36 5.22-2.5 7.97-6.56 8.68-11.82.24-1.81.19-3.64-.36-5.44-.91-2.97-2.87-5-6.17-5.97-4.96-1.47-9.44-.93-13.61 2.1-3.19 2.32-5.87 4.98-7.88 8.21l-4.17 7.7c-3.83 8.03-9.51 14.9-16.68 20.62-6.15 4.9-13.35 7.85-21.86 7.5-6.15-.26-12.13-1.08-17.65-3.74l-.61-.26-.57-.11c.36 3.37 4.08 7.07 7.9 8.03 2.87.73 5.72.42 8.55-.16l3.72-.76c2.04-.33 4.03-.21 5.76.98 1.64 1.12 1.85 2.91.51 4.11-.6.55-1.27.88-2.14.48l.07-.3c.84-.7 1.38-1.51.63-2.26-.73-.73-1.78-.29-2.57.18l-3.06 2.08c-5.41 4.23-11.76 5.66-18.73 5.15-2.35-.18-4.61-.79-6.62-1.97l-2.74-1.53c-2.94-1.97-6.12-1.9-9.39-.94-2.47.74-4.49 2.14-6.32 3.78-.69.62-1.04 1.4-1.34 2.22-1.08 2.89-2.4 5.68-4.31 8.22-1.39 1.85-3.12 3.34-5.2 4.52l-5.93 3.44c-4.28 2.69-9.06 4.2-14.16 4.9-3.04.43-6.01-.15-8.93-.93-3.5-.94-6.79-2.24-9.78-4.17l-5.25-3.07c-2.44-1.28-4.36-2.99-5.9-5.13-1.62-2.27-2.89-4.68-3.76-7.25-.58-1.74-1.67-3-3.19-4.08-2.55-1.82-5.3-3.09-8.62-3.07-1.85.01-3.6.27-5.1 1.38l-.81.43c-8.28 5.57-20.52 3.43-26.53-1.1l-3.16-2.27c-.21-.15-.42-.3-.65-.43-1.25-.72-2.54-.93-2.96-.41-.76.97.06 1.7.61 2.43l.02.13c-1.03.41-1.79-.01-2.37-.76-.62-.8-.76-1.66-.26-2.57.55-1 1.47-1.59 2.56-1.95 1.43-.46 2.9-.51 4.38-.23l5.88 1.14c1.73.29 3.48.3 5.2 0 3.37-.58 5.87-2.28 7.63-4.93l1.68-3.11c-.55-.5-1.02-.09-1.43.11-6.63 3.15-13.74 3.95-21.09 3.71-2.44-.09-4.8-.54-7.06-1.32-4.94-1.73-9.4-4.14-13.17-7.54-6.57-5.9-11.91-12.54-15.51-20.31-1.25-2.7-2.73-5.29-4.41-7.81-2.24-3.34-5.27-6.01-8.86-8.11-4.68-2.74-9.49-2.25-14.14-.01-2.67 1.28-3.7 3.73-4.19 6.36-1.18 6.24 2.47 13.05 8.57 15.87 4.12 1.9 8.75.91 11.48-2.44 3.34-4.11.83-9.52-4.75-10.2l-.93-.06 1.69-.44c3.26.91 4.85 2.18 5.8 4.03 1.6 3.2.97 7.88-3.43 10.2-4.63 2.44-10.43 2.18-14.46-1.08-5.28-4.28-7.65-9.62-6.26-16.07.6-2.79 1.8-5.35 3.51-7.72 6.55-9.08 18.73-8.89 26.05-2.94 2.51 2.03 4.16 4.6 5.6 7.31 2.44 4.56 5.2 8.93 8.47 13.06 2.32 2.92 4.73 5.77 7.62 8.26 1.36 1.17 2.82 2.26 4.48 3.07l1.24.49c.46-1.98.78-2.91 1.2-3.81 2.03-4.47 5.65-7.42 10.77-8.6 3.66-.82 7.23-.37 10.01 2.34l1.52 2.34c1.09 3.24-1.7 6.17-5.36 5.6-1.23-.19-2.3-.66-2.69-2.26-.61 1.39-.23 2.22.61 2.99 2.09 1.86 5.93 1.73 8.22-.27 2.99-2.62 3.18-7.02.44-9.96-1.31-1.4-2.99-2.22-4.86-2.81-5.3-1.7-10.46-1.27-15.35 1.13-2.55 1.25-5.2 1.55-7.98 1.4-5.65-.3-12.36-5.8-11.93-11.82.14-2.02.98-3.76 2.25-5.38 1.3-1.65 2.9-3.04 4.51-4.43 1.12-.96 2.3-1.88 3.17-3.06 1.08-1.46.94-3-.3-4.17-.94-.88-2.21-1.16-3.09-.66-1.08.61-1.41 1.53-.99 2.82l.19.33-.28.24c-3.07-1.05-4.8-2.99-4.51-5 .44-3.05 3.21-5.54 6.51-5.82l1.35-.01.46-.85c-3.58-4.82-6.14-9.72-8.89-14.53-2.11-3.71-2.3-7.57-1.48-11.56l.06-.24c.64-3.52.01-4.72-3.2-6.31 1.58-.26 1.82-.23 3.09.4 2.04 1 3.39 2.57 4.38 4.4l1.31 2.88c.93 1.96 2.54 3.09 4.95 3.12l4.03-.06c4.12-.18 7.96.81 11.7 2.21 1.33.51 2.37 1.38 3.45 2.2l.88.93.72-.55c-1.7-3.69-4.58-5.74-8.29-6.92-1.84-.59-3.73-1.01-5.67-1.17-2.14-.17-3.62-.96-4.7-2.82-3.45-5.98-6.47-12.06-7.33-18.84-.7-5.57.32-10.94 2.69-16.1.81-1.75 2.1-3.24 3.42-4.71l2.18-2.84c1.33-2.52.31-4.32-2.72-4.75l-1.04-.08c1.55-1.67 4.5-1.98 6.75-.86 2.12 1.03 3.17 3.13 2.81 5.62-.19 1.4-.68 2.72-1.28 4.03-.78 1.68-1.38 3.43-1.61 5.25-.3 2.36.02 4.6 1.4 6.69l3.05 4.09c2.25 2.42 5.08 3.81 8.26 4.06l-.71-.83c-5.82-4.93-7.74-10.61-7.12-17.21.58-6.26 2.65-12.03 6.25-17.37l.53-1.18c-.12-2.39-.5-3.96-1.33-5.45-.47-.84-1.1-1.55-2.02-1.99-1.15-.53-2.02-.09-2.13 1.04l.07.73c.04.65.02.93.02 1.3-2.38-2.17-1.43-5.81 1.7-6.84 2.8-.93 6.33.08 8.1 2.29l.63.9c4.16-2.87 8.15-6.04 10.91-10.23 2.5-3.77 1.71-7.35-.69-10.94 1.13-.15 1.98.38 2.78.86 4.88 2.98 6.93 9.92 3.64 14.44-1.01 1.39-2.5 2.37-3.84 3.47L89.18 26c-2.06 1.9-2.77 4.16-2.22 6.74l.41.02c.66-3.7 3.14-6.07 6.18-8.16 2.01-1.38 4.18-1.85 6.6-1.66 4.26.34 8.05 4.46 7.66 8.29l-.05.73-.65-.17c-1.34-2.62-3.76-3.49-6.44-2.44-1.07.41-2.03 1-2.73 1.84-3.65 4.31-4.71 9.97-1.35 15.03l1.31 1.62c1.47 1.53 3.07 2.34 5.48 1.57 2.32-.71 4.75-1.25 7.28-1.25 1.45 0 2.89.11 4.56.46-.9-1.16-1.93-1.83-2.94-2.52-1.4-.95-2.84-1.85-4.01-3.04-2.15-2.2-2.58-4.71-1.68-7.51l.46.53c1.12 2.66 3.04 4.08 5.7 4.9 1.94.58 3.94.72 5.92.95 3.11.36 5.88 1.12 7.76 4.16.25-2.42-.23-4.18-1.55-5.7l-2.93-3c-1.7-1.77-3.05-3.72-3.46-6.1-.68-4.02 2.52-8.04 6.94-8.65l-.73.64c-2.47 2.1-2.65 4.3-.8 6.31 1.28 1.4 2.94 2.32 4.81 2.89l6.14 1.73c3.4.93 6.28 2.46 7.81 5.7.96-.66 1.5-1.41 1.3-2.35-.34-1.6-2-1.57-3.33-1.94 1.47-1.43 4.01-.87 5.27.11.96.74 1.54 1.69 1.81 2.78l.19 1.21c.26 1.03-.06 1.77.55 1.86l.95-.73c.39-1.79.61-3.06.72-4.33.29-3.51 1.74-6.61 3.97-9.43l.71-.62c3.13 3.85 4.38 7.39 4.61 11.25l.42 2.53c.17.57.27 1.21 1.06 1.45l.48-1.21c.21-1.92.58-3.13 1.48-4.18 1.21-1.43 4.22-2.24 5.82-.82-3.75 1.38-4.08 2.05-2.22 4.28l.49-.16c1.31-2.62 3.47-4 6.06-4.89l5.36-1.54c1.4-.39 2.81-.78 4.12-1.41l2.72-1.88c2.28-2.23 2.15-4.5-.4-6.48l-.74-.52c5.23.41 8.4 5.67 6.19 10.56-.99 2.19-2.68 3.94-4.49 5.57-2.07 1.87-3.12 4.07-2.91 6.76l.66-.56c1.77-2.16 3.94-2.88 6.31-3.21l5.36-.74c3.46-.59 6.09-2.16 7.21-5.37l.18-.16c1.16 2.54.61 5.26-1.4 7.27l-3.69 2.82c-.98.68-2.05 1.3-2.78 2.17l.76.29c2.97-.28 5.57-.15 8.13.51l2.52.58c2.36.89 4.04-.05 5.45-1.61 3.28-3.64 4-7.74 2.5-12.22-.48-1.41-1.26-2.69-2.19-3.88-1.08-1.38-2.52-2.33-4.41-2.66s-3.66.38-4.68 1.85l-.36 1.03c-2.31-4.3 3.31-8.92 7.07-9 2.29-.03 4.36.29 6.22 1.62 1.42 1.02 2.84 2.04 3.98 3.34 1.41 1.62 2.22 3.46 2.33 5.66 1.22-2.79.48-5.56-2.05-7.74l-4.11-3.24c-4.53-3.08-4.43-8.51-2.64-12.11 1.18-2.39 3.01-4.32 5.82-5.29l.63-.23c-.31 1.1-.75 2.1-1.16 3.1-1.02 2.47-.88 4.88.44 7.24 1.01 1.82 2.32 3.44 3.82 4.92l6.96 6.56c.67-.33.78-.93 1.13-1.37 1.76-2.21 5.27-3.23 8.1-2.35 3.12.99 4.1 4.36 1.8 6.96l.09-2.07c-.09-1.18-.95-1.61-2.1-1.13-.89.39-1.47 1.05-1.95 1.8-1.08 1.69-1.3 3.56-1.52 5.44-.08.75.5 1.25.87 1.81 3.09 4.72 5.04 9.8 5.8 15.25.66 4.83.25 9.49-2.33 13.87-1.24 2.1-3.14 3.64-4.85 5.34l-.56.19.43.41.58-.13"/><path clip-path="url(#c)" d="M141.32 271.31c-.93-1.15-2.37-1.54-3.76-1.97-1.9-.61-3.82-1.15-5.72-1.77-1.65-.54-3.16-1.35-4.54-2.32-3.24-2.25-4.97-5.18-5.05-8.93-.04-2.17.24-4.22 1.31-6.21 1.33-2.47 2.25-5.08 2.35-7.88.01-.42-.06-.9.54-1.06.56-.15.84.26 1.16.55 3.13 2.79 6.8 4.71 11.01 5.84 2.23.59 4.48.49 6.8.85-.09-.88-.76-.83-1.18-.96-2.9-.78-5.72-1.74-8.38-3.09-2.88-1.47-5.5-3.26-7.81-5.42-2.99-2.82-4.46-6.05-3.29-10 .32-1.12.55-2.27.9-3.36.24-.76.78-.93 1.33-.36 2.22 2.3 5.52 2.76 8.53 4.36-.48-1.05-1.17-1.5-1.88-1.9-.91-.52-1.85-.98-2.78-1.48-3.14-1.68-6.38-6.56-4.93-10.38.04-.11.01-.26.07-.36.24-.48.22-1.22.9-1.31.65-.1.71.6.99 1 2.08 2.85 4.65 5.2 8.03 6.76 5.41 2.51 11.07 4.35 17.07 5.27 2.18.34 4.29-.08 6.35-.61 6.51-1.68 12.69-3.99 17.79-8.19 2.2-1.8 4.07-3.89 5.92-5.99.4-.46.64-1.09 1.43-1.2.56.19.49.7.52 1.08.28 2.79-.16 5.37-1.76 7.89-1.8 2.86-4.01 5.16-7.2 6.7-.95.46-1.78 1.08-2.36 2.33 3.04-1.8 6.51-2.35 8.82-4.83.9-.98 1.38-.8 1.65.39.51 2.21.95 4.46.95 6.71.01 3.02-1.54 5.5-3.85 7.61-4.09 3.76-8.97 6.33-14.5 7.97-.75.23-1.73.16-2.37 1.12 2.3.16 4.38-.09 6.43-.6 4.02-1.02 7.54-2.86 10.59-5.45.29-.24.54-.54.86-.76.56-.38 1-.23 1.24.35.06.1.06.24.06.36-.06 3.14 1.22 5.96 2.61 8.75 2.34 4.63 1.12 11.71-4.99 15.11-2.49 1.38-5.19 2.26-7.95 3.04-.9.26-1.79.51-2.67.82-1.38.49-1.93.91-3.08 2.2 1.76-.31 3.32-.88 4.99-.92 1.14-.04 2.28-.16 3.42-.24 6.07-.45 10.51-3.03 13.02-8.16.4-.81.54-1.94 1.75-2.04 1.25-.11 1.55 1.02 2.05 1.76 2.18 3.15 4.43 6.25 6.93 9.21 3.55 4.18 8.26 6.91 13.43 9.08 2.37.99 4.72 2.05 7.18 2.87 2.22.73 4.27 1.8 6 3.28 3.22 2.74 7.11 4.26 11.32 5.25 3.57.83 7.07.3 10.59-.16 2.12-.28 4.24-.63 6.4-.56 4.15.13 6.89 2.2 8.94 5.21-.35.36-.49.14-.59.04-2.85-2.62-6.22-3.14-10-2.17-3.36.86-6.71 1.73-10.09 2.47-4.26.93-8.38.55-12.33-1.27-2.94-1.36-5.59-3.13-8.33-4.79-.6-.36-1.09-.88-2.04-.99 1.18 4.24 2.91 7.91 8.05 9.18.9.22 1.78.55 2.68.75 4.06.93 6.73 3.36 8.74 6.55-.52.42-.71-.07-.98-.24-.26-.18-.5-.42-.73-.64-2.57-2.54-5.81-3.84-9.54-4.22-1.34-.14-2.65-.41-3.93-.78-2.86-.83-5.08-2.39-6.66-4.75-2.9-4.32-7.2-6.64-12.74-6.89-2.69-.12-5.38-.02-8.07.07-2.65.09-4.4 1.97-4.2 4.38.26 3.45 1.03 4.73 4.07 6.95 1.64 1.2 3.51 2.02 5.41 2.79 1.28.52 2.62.98 3.84 1.6 2.32 1.19 2.81 3.03 1.52 5.27-.78-.33-.37-.98-.46-1.45-.22-1.29-.88-2.14-2.34-2.42-1.31-.24-2.61-.61-3.93-.76-3.14-.38-5.69-1.72-7.87-3.74-1.94-1.79-3.58-3.8-5.23-5.8-.41-.5-.71-1.13-1.7-1.64.4 3.51-1.7 6.26-2.2 9.37-.08.47-.13.97-.22 1.45-.72 4.21 1.13 7.36 4.78 9.81 1.51 1 3.05 1.98 4.54 3.03 1.18.83 2.22 1.77 2.86 3.02 1.16 2.27.23 4.32-2.39 5.2-.22-.4.04-.7.19-1.03.8-1.81.14-3.2-1.49-4.32-1.82-1.26-3.64-2.49-5.65-3.5-1.12-.55-2.21-1.14-3.22-1.86-2.8-2-4.28-4.65-4.46-7.87-.06-1.33-.08-2.69.11-4.02.51-3.61-.58-6.88-2.47-9.95-.93-1.52-2.32-2.67-3.96-3.57-1.61-.89-3.31-.9-5.07-.61-.88.16-1.55.61-2.04 1.35-2.89 4.52-4.8 9.26-4.15 14.61.21 1.75.37 3.52.64 5.27.46 2.96 1.73 5.62 3.99 7.84 1.01.99 2.01 1.97 2.99 2.98 1.75 1.8 2.76 3.95 3.54 6.22-.73.16-.84-.26-1.03-.54-1.47-2.32-3.44-4.22-5.72-5.86-2.84-2.05-5.25-4.35-6.46-7.55-.13-.34-.27-.73-.79-.65-.47.06-.58.46-.75.78-2.1 3.95-2.71 7.98-1.2 12.24.72 2.02 1.45 4.06 1.9 6.16 1.1 4.98.09 9.49-3.66 13.31-2.25 2.29-3.22 4.71-2.15 7.69.1.28.09.6.1.9.01.09-.11.18-.19.29-.06.01-.16.05-.18.03-2.74-2.35-3.43-7.09-1.5-9.9 2.39-3.52 2.61-7.1.18-10.69-1.08-1.61-2.26-3.17-3.39-4.76-1.77-2.46-3.24-5.05-4.13-7.89-.16-.5-.06-1.18-.99-1.12-.8.06-.92.68-1.03 1.18-.36 1.44-.61 2.88-.91 4.32-.49 2.34-.98 4.67-1.95 6.89-1.43 3.27-3.81 5.81-7.13 7.88-.01-.7.49-.94.79-1.28 1.25-1.42 2.48-2.87 3.54-4.43 1.36-1.97 2.02-4.08 1.63-6.44-.22-1.33-.37-2.66-.49-3.99-.28-3.14.67-6.03 2.22-8.8 1.5-2.67 3.17-5.25 5.06-7.68 2.82-3.61 2.79-7.52 1.9-11.56-.36-1.55-1.07-3.01-2-4.37-1.72-2.55-4.9-3.39-7.86-2.06-2.17.97-3.82 2.51-4.9 4.46-1.6 2.94-2.53 6.03-2.05 9.37.29 1.87.32 3.76-.09 5.64-.71 3.19-2.76 5.5-5.78 7.16-1.95 1.06-3.96 2.05-5.77 3.32-.47.34-.96.67-1.44.98-1.8 1.19-2.45 2.69-1.5 4.63.13.26.31.55.01.83-2.78-1.15-3.56-3.24-2.1-5.59.85-1.37 2.15-2.33 3.5-3.25 1.45-.99 2.94-1.93 4.36-2.94 3.39-2.44 4.8-5.58 4.09-9.52-.29-1.64-.6-3.23-1.31-4.77-.82-1.75-1.11-3.64-1.25-5.53-.72-.01-.88.52-1.16.88-1.47 1.82-2.97 3.61-4.61 5.32-2.47 2.56-5.36 4.4-9.22 4.73-1.06.09-2.1.41-3.13.66-2.17.51-2.62.98-2.86 2.98-.04.29-.04.59-.06.96-1.45-1.32-1.4-3.09.04-4.48.61-.58 1.38-.95 2.19-1.27 1.47-.59 2.94-1.17 4.4-1.78 2.28-.96 4.28-2.27 6-3.95 1.59-1.56 2.37-5.27 1.47-7.2-.59-1.24-1.48-2.23-3.11-2.27-3.82-.11-7.66-.48-11.45.21-4.03.71-7.38 2.65-9.43 5.77-2.43 3.69-5.83 5.7-10.32 6.2-4.47.48-8.25 1.98-11.23 5.08-.16.16-.4.26-.59.38-.21-.2-.22-.39-.11-.56 1.92-2.72 4.16-5.09 7.81-5.97 1.41-.33 2.79-.83 4.18-1.25 2.87-.86 4.79-2.62 5.89-5.14.54-1.23.99-2.47 1.54-3.86-1.02.14-1.53.66-2.11 1.01-2.29 1.4-4.52 2.85-6.89 4.14-4.85 2.6-9.95 3.07-15.32 1.7-2.84-.73-5.67-1.45-8.53-2.12-1.03-.26-2.1-.44-3.16-.51-2.03-.14-3.85.4-5.46 1.51-.69.48-1.33 1.01-2.05 1.54 1.15-3.02 5.08-5.62 8.55-5.69 3.04-.07 6.04.36 8.99.86 5.2.86 9.99-.11 14.6-2.2 1.86-.84 3.61-1.85 5.12-3.18 2.47-2.19 5.59-3.37 8.82-4.22 3.84-1.02 7.34-2.64 10.79-4.43 3.87-2 6.85-4.86 9.49-8.08 2.05-2.5 3.87-5.13 5.69-7.76.51-.74.8-1.87 2.08-1.73 1.09.13 1.26 1.13 1.64 1.92 2.5 5.2 6.96 7.88 13.14 8.27 2.41.14 4.8.37 7.17.85.28.25.65.46.94.14.16-.16-.16-.37-.41-.46"/><path clip-path="url(#c)" d="M99.27 208.93c2.42-3.94 5.97-5.85 10.93-6.05-1.6-.95-2.57-1.11-4.18-.72-3.36.81-5.75 2.77-7.55 5.39-.38.56-.73 1.13-1.21 1.65.08-2.59 1.21-4.82 2.89-6.84 3.02-3.61 6.83-5.8 12.07-5.19 1.08.12 2.1.37 3.1.76 4.6 1.73 4.54 5.84 2.45 8.45-1.59 1.99-3.92 3.16-6.41 3.93-1.24.39-2.66.18-3.96-.17-1.09-.29-2.18-.58-3.25-.94-1.53-.5-3.06-.88-4.88-.27"/><path clip-path="url(#c)" d="M213.88 208.93c-1.9-3.32-4.4-6.1-8.6-7.13-1.44-.36-2.88-.3-4.58.56 3.14.46 6.02.8 8.23 2.71 1.12.97 2.12 2.02 3.11 3.47-2.01-.59-3.64-.17-5.25.39-.43.16-.89.24-1.33.41-4.93 1.82-8.53.16-11.8-3.14-3-3.02-1.8-7.17 2.36-8.67 4.02-1.45 7.93-1.16 11.44 1.2 3.59 2.4 5.9 5.62 6.64 9.67.03.15.09.34-.22.53"/><path clip-path="url(#c)" d="M114.91 221.18c-.21-1.36-.14-2.37-.02-3.41.11-1 .56-1.95.9-3.06-2.16 1.26-3.07 4.68-2.38 8.31-.55.04-.65-.39-.83-.71-1.65-2.94-1.9-6.04-1.19-9.23.21-.91.68-1.37 1.67-1.53 2.69-.41 4.54-1.94 5.97-3.95.75-1.05 1.28-1.16 2.36-.39 1.21.88 1.88 2.05 2.14 3.41.65 3.36-1.11 6.67-4.4 8.3-1.34.65-2.76 1.2-4.23 2.24"/><path clip-path="url(#c)" d="M197.94 222.75c1.01-4.04-.68-7.28-3.56-10.21 1.64 2.47 2.4 5.08 1.95 8.2-1.68-1.12-3.46-1.65-4.98-2.6-3.04-1.89-4.73-5.57-3.29-9 .41-.98 1.02-1.86 2.03-2.44 1.01-.61 1.39-.54 2.05.44.75 1.1 1.67 2.06 2.82 2.82.94.6 1.94 1.11 3.11 1.22 1.12.1 1.58.65 1.79 1.62.75 3.53.38 6.86-1.92 9.95"/><path clip-path="url(#c)" d="M154.8 98.4v-.01c-1.27 0-2.56-.04-3.83.01-.81.03-1.02.39-.57.9.9 1.05 1.92 2.02 3.19 2.77.77.43 1.5.42 2.26-.01 1.25-.75 2.25-1.73 3.19-2.77.42-.46.2-.86-.41-.88-1.27-.05-2.56-.01-3.83-.01m22.24 35.26c-3.66-1.57-7.26-1.3-10.86.15-1.78.72-3.46 1.58-5.17 2.45-4.2 2.1-8.4 2.11-12.61-.01-1.87-.94-3.72-1.94-5.71-2.66-3.52-1.29-7.01-1.48-10.46.18-.08-.11-.15-.21-.24-.3.36-.88 1.2-1.43 1.85-2.11 3.11-3.12 6.76-5.75 9.99-8.75 1.37-1.26 2.69-2.55 3.58-4.15.34-.61.88-1.08 1.4-1.53 5.62-4.83 3.69-12.08-.84-15.7-.93-.75-1.13-1.26-.7-2.38 1.17-3.09.71-6.12-.94-9-.12-.22-.19-.46-.29-.68.16-.26.38-.26.66-.14 3.4 1.43 7.01 1.43 10.61 1.22 1.64-.09 3.31-.35 4.85-1.02.34-.14.82-.17.62-.75-2.83.53-5.71.21-8.56.18-2.32-.04-4.68.46-6.98-.16-.81-.22-.61.68-1.15.68-1.69-1.65-3.53-3.12-5.96-3.87-1.15-.35-2.31-.64-3.54-.55-.71.06-1.01-.25-.98-.84.04-.61.02-1.23.19-1.82.46-1.57 1.01-3.14 1.53-4.71 4.51 1.95 7.63 2.58 11.07 2.19-1.21-.7-2.5-.98-3.71-1.41-1.68-.6-3.34-1.25-4.89-2.1-1.46-.82-2.61-1.88-3.55-3.19-.65-.9-.72-1.78-.32-2.77.46-1.16 1.13-2.21 1.95-3.19 3.75-4.48 8.53-7.71 14.38-9.61 1.57-.51 3.14-.54 4.73-.04 6.07 1.91 10.98 5.28 14.81 9.94.24.3.44.62.64.94 1.97 3.07 1.86 4.01-1.04 6.69-1.58 1.45-3.66 2.24-5.72 2.97-1.53.56-3.07 1.08-4.56 1.76 3.85.18 7.51-.33 10.98-2.32.59 1.95 1.22 3.77 1.7 5.62.38 1.49.06 1.78-1.63 1.87-4.42.21-8.56 3.09-9.94 6.92-.93 2.57-1.07 5.15.11 7.68.33.7.24 1.02-.41 1.49-2.62 1.9-4.13 4.43-4.63 7.46-.49 2.94.28 5.58 2.52 7.78 1.15 1.13 2.13 2.33 3.04 3.61 1.43 2.02 3.45 3.58 5.36 5.21 2.64 2.26 5.38 4.41 7.8 6.88.49.49.95 1.02 1.42 1.53Z"/><path clip-path="url(#c)" d="M139.7 145.6c-3.01 0-5.22-.68-6.96-2.22-3.02-2.7-2.18-5.06.18-7.13 1.26-1.11 3.14-1.05 4.79-.83 3.62.47 6.12 2.32 7.35 5.48.68 1.73.13 2.96-1.65 3.81-1.33.63-2.77.9-3.71.89"/><path clip-path="url(#c)" d="M170.14 145.6c-1.57-.01-3.07-.31-4.41-1.05-1.41-.78-1.93-1.79-1.5-3.25 1.32-4.41 6.49-7.14 11.55-5.47 2.87.94 3.62 4.73 1.49 6.96-1.87 1.96-4.31 2.8-7.13 2.8"/><path clip-path="url(#c)" d="M154.75 146.04c-2.16-.18-3.91-.95-5.17-2.51-.66-.81-.36-1.45.74-1.47 2.94-.06 5.88-.06 8.82.01 1.13.03 1.38.64.68 1.46-1.27 1.55-3.04 2.29-5.07 2.51"/><path clip-path="url(#c)" d="M170.11 58.37c-.2.09-.43.27-.58-.03-.01-.05.22-.19.34-.29.08.1.16.21.24.32"/><path clip-path="url(#c)" d="M132.22 133.77c-.17.06-.38.33-.53.01-.06-.15.11-.26.29-.31.09.09.18.18.24.29"/><path clip-path="url(#c)" d="M177.42 133.33c.08.14.27.37.23.41-.23.25-.44.08-.61-.09Z"/><path clip-path="url(#c)" d="M153.47 212.3c-4.07.02-9.12-1.01-13.94-3.03-2.48-1.03-4.58-2.5-6.07-4.64-.21-.31-.45-.6-.61-.94-.18-.38-.36-.83.05-1.18.39-.35.92-.27 1.3-.06 2.05 1.2 4.36 1.06 6.62 1.1 2.39.05 4.65-.55 6.84-1.3 4.7-1.63 9.4-1.65 14.09.02 3.04 1.08 6.2 1.5 9.46 1.23 1.28-.12 2.53-.26 3.66-.88.28-.16.6-.27.93-.3.67-.06 1.01.24.95.86-.06.5-.39.9-.68 1.3-1.33 1.89-3.09 3.36-5.3 4.38-5.05 2.32-10.41 3.44-17.31 3.44"/></g></g></svg>